<svg data-v-2cb57da0="" version="1.0" xmlns="http://www.w3.org/2000/svg"
xmlns:xlink="http://www.w3.org/1999/xlink" width="204px" height="80px" viewBox="0 0 340.000000 250.000000"
preserveAspectRatio="xMidYMid meet" color-interpolation-filters="sRGB"
style="margin: auto;">
	<rect data-v-2cb57da0="" x="0" y="0" width="100%" height="100%" fill="#ffffff"
	fill-opacity="0" class="background">
	</rect>
	<rect data-v-2cb57da0="" x="0" y="0" width="100%" height="100%" fill="url(#watermark)"
	fill-opacity="1" class="watermarklayer">
	</rect>
	<g data-v-2cb57da0="" fill="#ff0844" class="basesvg" transform="translate(58.62249755859375,103.80635070800781)">
		<g data-gra="path-name" fill-rule="" class="tp-name" transform="matrix(1,0,0,1,0,0)"
		opacity="1">
			<g transform="scale(1)">
				<g>
					<path d="M16.38-1.69L16.38-1.69Q14 0.44 9.97 0.44L9.97 0.44Q6.19 0.44 2.94-1.69L2.94-1.69Q1.34-3 2.66-4.56L2.66-4.56Q4.06-6.25 5.91-4.91L5.91-4.91Q8-3.66 10.09-3.66L10.09-3.66Q11.91-3.66 12.88-4.38 13.84-5.09 13.84-6.38L13.84-6.38Q13.84-7 13.64-7.45 13.44-7.91 12.83-8.31 12.22-8.72 11.81-8.91 11.41-9.09 10.31-9.56L10.31-9.56 7.13-10.91Q2.34-12.91 2.34-17.28L2.34-17.28Q2.34-20.22 4.64-22.17 6.94-24.13 10.53-24.13L10.53-24.13Q13.91-24.13 16.59-22.25L16.59-22.25Q17.97-21.06 16.81-19.69L16.81-19.69Q15.5-18.09 13.91-19.22L13.91-19.22Q12.28-20.06 10.53-20.06L10.53-20.06Q8.94-20.06 8.02-19.39 7.09-18.72 7.09-17.56L7.09-17.56Q7.09-16.47 7.94-15.86 8.78-15.25 10.53-14.56L10.53-14.56Q10.72-14.5 10.81-14.47L10.81-14.47 13.91-13.16Q16.22-12.19 17.45-10.67 18.69-9.16 18.69-6.72L18.69-6.72Q18.69-3.72 16.38-1.69ZM28-12.34L27.31-9.75 32.94-9.75 32.22-12.34Q31.81-13.72 31.13-16.39 30.44-19.06 30.16-20.09L30.16-20.09 30.03-20.09Q29.22-16.47 28-12.34L28-12.34ZM35.13-1.69L33.97-6.09 26.28-6.09 25.13-1.91Q24.63 0 22.66 0L22.66 0Q19.84 0 20.69-2.75L20.69-2.75 26.88-22.09Q27.09-22.81 27.7-23.25 28.31-23.69 29.09-23.69L29.09-23.69 31.25-23.69Q32.03-23.69 32.64-23.25 33.25-22.81 33.47-22.06L33.47-22.06 39.81-2.34Q40.16-1.28 39.7-0.64 39.25 0 38.13 0L38.13 0 37.38 0Q36.56 0 35.95-0.45 35.34-0.91 35.13-1.69L35.13-1.69ZM60 0L60 0 58.5 0Q57.28 0 56.72-1.03L56.72-1.03 51.19-10.63 48.09-6.66 48.09-2.38Q48.09 0 45.72 0 43.34 0 43.34-2.38L43.34-2.38 43.34-21.31Q43.34-23.69 45.72-23.69 48.09-23.69 48.09-21.31L48.09-21.31 48.09-13.41 48.19-13.41 55.25-22.66Q56-23.69 57.31-23.69L57.31-23.69 58.75-23.69Q59.88-23.69 60.14-23.13 60.41-22.56 59.69-21.69L59.69-21.69 54-14.38 61.25-2.19Q61.84-1.19 61.5-0.59 61.16 0 60 0Z"
					transform="translate(-2.0632877349853516, 24.1299991607666)">
					</path>
				</g>
				<!---->
				<!---->
				<!---->
				<!---->
				<!---->
				<!---->
				<g data-gra="path-name-1" fill="#0a0619" transform="translate(62.561012268066406,0)">
					<g transform="scale(1)">
						<path d="M16.59-10.25L16.59-10.25 16.59-21.41Q16.59-23.69 18.88-23.69 21.16-23.69 21.16-21.41L21.16-21.41 21.16-10.66Q21.16 0.44 12 0.44L12 0.44Q2.78 0.44 2.78-10.66L2.78-10.66 2.78-21.31Q2.78-23.69 5.16-23.69 7.53-23.69 7.53-21.31L7.53-21.31 7.53-10.25Q7.53-6.69 8.67-5.17 9.81-3.66 12-3.66L12-3.66Q14.25-3.66 15.42-5.19 16.59-6.72 16.59-10.25ZM34.63-19.94L31.56-19.94 31.56-12.72 34.63-12.72Q39.34-12.72 39.34-16.5L39.34-16.5Q39.34-18.34 38.17-19.14 37-19.94 34.63-19.94L34.63-19.94ZM28.91-23.69L28.91-23.69 35.06-23.69Q43.97-23.69 43.97-16.5L43.97-16.5Q43.97-11.44 39.47-9.69L39.47-9.69 43.66-2.38Q44.25-1.31 43.88-0.66 43.5 0 42.28 0L42.28 0 41.19 0Q39.66 0 39-1.28L39-1.28 34.84-8.97 31.56-8.97 31.56-2.38Q31.56 0 29.19 0 26.81 0 26.81-2.38L26.81-2.38 26.81-21.59Q26.81-22.53 27.39-23.11 27.97-23.69 28.91-23.69ZM53.78-12.34L53.09-9.75 58.72-9.75 58-12.34Q57.59-13.72 56.91-16.39 56.22-19.06 55.94-20.09L55.94-20.09 55.81-20.09Q55-16.47 53.78-12.34L53.78-12.34ZM60.91-1.69L59.75-6.09 52.06-6.09 50.91-1.91Q50.41 0 48.44 0L48.44 0Q45.63 0 46.47-2.75L46.47-2.75 52.66-22.09Q52.88-22.81 53.48-23.25 54.09-23.69 54.88-23.69L54.88-23.69 57.03-23.69Q57.81-23.69 58.42-23.25 59.03-22.81 59.25-22.06L59.25-22.06 65.59-2.34Q65.94-1.28 65.48-0.64 65.03 0 63.91 0L63.91 0 63.16 0Q62.34 0 61.73-0.45 61.13-0.91 60.91-1.69L60.91-1.69ZM82.59-1.69L82.59-1.69Q80.22 0.44 76.19 0.44L76.19 0.44Q72.41 0.44 69.16-1.69L69.16-1.69Q67.56-3 68.88-4.56L68.88-4.56Q70.28-6.25 72.13-4.91L72.13-4.91Q74.22-3.66 76.31-3.66L76.31-3.66Q78.13-3.66 79.09-4.38 80.06-5.09 80.06-6.38L80.06-6.38Q80.06-7 79.86-7.45 79.66-7.91 79.05-8.31 78.44-8.72 78.03-8.91 77.63-9.09 76.53-9.56L76.53-9.56 73.34-10.91Q68.56-12.91 68.56-17.28L68.56-17.28Q68.56-20.22 70.86-22.17 73.16-24.13 76.75-24.13L76.75-24.13Q80.13-24.13 82.81-22.25L82.81-22.25Q84.19-21.06 83.03-19.69L83.03-19.69Q81.72-18.09 80.13-19.22L80.13-19.22Q78.5-20.06 76.75-20.06L76.75-20.06Q75.16-20.06 74.23-19.39 73.31-18.72 73.31-17.56L73.31-17.56Q73.31-16.47 74.16-15.86 75-15.25 76.75-14.56L76.75-14.56Q76.94-14.5 77.03-14.47L77.03-14.47 80.13-13.16Q82.44-12.19 83.67-10.67 84.91-9.16 84.91-6.72L84.91-6.72Q84.91-3.72 82.59-1.69ZM91.16-23.69L91.16-23.69 92.78-23.69Q93.91-23.69 94.44-22.69L94.44-22.69 100.78-11.06 103.16-5.94 103.31-5.94Q102.69-12.13 102.69-14.25L102.69-14.25 102.69-21.44Q102.69-23.69 104.94-23.69 107.19-23.69 107.19-21.44L107.19-21.44 107.19-2.41Q107.19-1.25 106.39-0.63 105.59 0 104.34 0L104.34 0Q102.38 0 101.59-1.44L101.59-1.44 95.53-12.69 93.13-17.75 92.97-17.75Q93-17.31 93.2-15.33 93.41-13.34 93.48-12.03 93.56-10.72 93.56-9.5L93.56-9.5 93.56-2.25Q93.56 0 91.31 0 89.06 0 89.06-2.25L89.06-2.25 89.06-21.59Q89.06-22.53 89.64-23.11 90.22-23.69 91.16-23.69ZM133-11.94L133-11.94Q133-6.47 130.19-3.02 127.38 0.44 122.41 0.44L122.41 0.44Q117.66 0.44 114.73-2.89 111.81-6.22 111.81-11.94L111.81-11.94Q111.81-17.63 114.72-20.88 117.63-24.13 122.41-24.13 127.19-24.13 130.09-20.88 133-17.63 133-11.94ZM116.66-11.94L116.66-11.94Q116.66-8.38 118.11-6.02 119.56-3.66 122.41-3.66L122.41-3.66Q125.06-3.66 126.63-5.91 128.19-8.16 128.19-11.94 128.19-15.72 126.63-17.89 125.06-20.06 122.41-20.06 119.75-20.06 118.2-17.91 116.66-15.75 116.66-11.94ZM157.13 0L157.13 0 154.47 0Q153.84 0 153.39-0.36 152.94-0.72 152.78-1.34L152.78-1.34 150.44-11.72Q149.69-15.41 149.41-17.19L149.41-17.19 149.28-17.19Q148.78-14.28 148.25-11.72L148.25-11.72 146.03-1.78Q145.88-0.97 145.28-0.48 144.69 0 143.84 0L143.84 0 141.69 0Q140.84 0 140.27-0.48 139.69-0.97 139.53-1.78L139.53-1.78 135.75-21.41Q135.53-22.47 136.03-23.08 136.53-23.69 137.59-23.69L137.59-23.69 138.25-23.69Q139.13-23.69 139.7-23.17 140.28-22.66 140.44-21.81L140.44-21.81 142-12.13Q142.16-10.94 142.53-8.41 142.91-5.88 143.09-4.56L143.09-4.56 143.22-4.56Q143.22-4.59 144.75-12.13L144.75-12.13 147.09-22.03Q147.47-23.69 149.5-23.69 151.53-23.69 151.91-22.03L151.91-22.03 154.28-12.13Q154.78-9.69 155.78-4.56L155.78-4.56 155.94-4.56Q156.13-6.03 156.52-8.72 156.91-11.41 157-12.13L157-12.13 158.53-21.69Q158.88-23.69 160.88-23.69L160.88-23.69Q163.34-23.69 162.91-21.25L162.91-21.25 159.31-1.81Q159.16-1 158.56-0.5 157.97 0 157.13 0Z"
						transform="translate(-2.7799999713897705, 24.1299991607666)">
						</path>
					</g>
				</g>
			</g>
		</g>
		<g data-gra="path-slogan" fill-rule="" class="tp-slogan" fill="#0a0619"
		transform="matrix(1,0,0,1,72.81921005249023,30.56999969482422)" opacity="1">
			<!---->
			<!---->
			<g transform="scale(1, 1)">
				<g transform="scale(1.3200000000000003)">

				</g>
			</g>
		</g>
	</g>
	<defs v-gra="od">
	</defs>
</svg>